<svg xmlns="http://www.w3.org/2000/svg" width="515.712" height="558.58" viewBox="0 0 515.712 558.58">
  <g id="Group_1" data-name="Group 1" transform="translate(-498 -297)">
    <path id="Path_13" data-name="Path 13" d="M169.859,669.3V158.535a8.392,8.392,0,0,1,8.382-8.382h468.3a8.392,8.392,0,0,1,8.382,8.382V669.3a8.392,8.392,0,0,1-8.382,8.382h-468.3a8.392,8.392,0,0,1-8.382-8.382Zm8.382-515.8a5.035,5.035,0,0,0-5.029,5.029V669.3a5.035,5.035,0,0,0,5.029,5.029h468.3a5.035,5.035,0,0,0,5.029-5.029V158.535a5.035,5.035,0,0,0-5.029-5.029Z" transform="translate(328.141 177.897)" fill="#e6e6e6"/>
    <path id="Path_16" data-name="Path 16" d="M319.8,588.1a23.836,23.836,0,1,0,0,47.671H504.981a23.836,23.836,0,0,0,0-47.671Z" transform="translate(328.141 142.897)" fill="#e6e6e6"/>
    <path id="Path_17" data-name="Path 17" d="M608.962,157.408a38.3,38.3,0,1,1,38.3,38.3,38.3,38.3,0,0,1-38.3-38.3Z" transform="translate(328.141 177.897)" fill="#6c63ff"/>
    <path id="Path_18" data-name="Path 18" d="M632.153,153.63h11.336V142.294a3.779,3.779,0,1,1,7.557,0V153.63h11.336a3.779,3.779,0,0,1,0,7.557H651.045v11.336a3.779,3.779,0,0,1-7.557,0V161.187H632.153a3.779,3.779,0,0,1,0-7.557Z" transform="translate(328.141 177.897)" fill="#fff"/>
    <rect id="Rectangle_2" data-name="Rectangle 2" width="353.447" height="2.235" transform="matrix(0.773, -0.634, 0.634, 0.773, 625.277, 648.714)" fill="#e6e6e6"/>
    <rect id="Rectangle_3" data-name="Rectangle 3" width="2.235" height="354.157" transform="matrix(0.636, -0.772, 0.772, 0.636, 625.31, 426.38)" fill="#e6e6e6"/>
    <path id="Path_19" data-name="Path 19" d="M293.359,502.213V286.506a7.833,7.833,0,0,1,7.824-7.824h266a7.832,7.832,0,0,1,7.824,7.824V502.213a7.833,7.833,0,0,1-7.824,7.824h-266a7.833,7.833,0,0,1-7.824-7.824Zm7.824-221.295a5.6,5.6,0,0,0-5.588,5.588V502.213a5.6,5.6,0,0,0,5.588,5.588h266a5.6,5.6,0,0,0,5.588-5.588V286.506a5.6,5.6,0,0,0-5.588-5.588Z" transform="translate(328.141 142.897)" fill="#3f3d56"/>
    <path id="Path_20" data-name="Path 20" d="M249.771,541.33V325.624a7.833,7.833,0,0,1,7.824-7.824h266a7.833,7.833,0,0,1,7.824,7.824V541.33a7.833,7.833,0,0,1-7.824,7.824h-266A7.833,7.833,0,0,1,249.771,541.33Z" transform="translate(328.141 142.897)" fill="#6c63ff"/>
    <path id="Path_21" data-name="Path 21" d="M360.247,496.065h135.8a2.767,2.767,0,0,0,.507-.04L432.328,384.774a4.5,4.5,0,0,0-7.828,0l-43.1,74.658L379.33,463Z" transform="translate(328.141 142.897)" fill="#fff"/>
    <path id="Path_22" data-name="Path 22" d="M190.389,376.961h46.365L213.993,343.9l-1.638-2.382-.819-1.191-2.065,3.573Z" transform="translate(498 262.001)" opacity="0.2"/>
    <path id="Path_23" data-name="Path 23" d="M284.634,496.065H402.091L379.33,463l-1.638-2.382-29.659-43.085c-1.944-2.824-6.622-3-8.908-.533a5.363,5.363,0,0,0-.427.533Z" transform="translate(328.141 142.897)" fill="#fff"/>
    <circle id="Ellipse_2" data-name="Ellipse 2" cx="20.118" cy="20.118" r="20.118" transform="translate(681.183 513.785)" fill="#fff"/>
  </g>
</svg>
